<svg xmlns="http://www.w3.org/2000/svg" viewBox="0 0 24 24"><path d="M4.79,17.93a.51.51,0,0,1-.5-.5.58.58,0,0,1,0-.19.62.62,0,0,1,.11-.17A.54.54,0,0,1,4.6,17,.48.48,0,0,1,5,17a.54.54,0,0,1,.16.1,1,1,0,0,1,.11.17.58.58,0,0,1,0,.19.63.63,0,0,1,0,.19.91.91,0,0,1-.11.16A.53.53,0,0,1,4.79,17.93ZM4,19.44H4a.5.5,0,0,0,.44-.26h0a.5.5,0,0,0-.21-.68h0a.49.49,0,0,0-.67.21h0a.51.51,0,0,0,.2.68A.49.49,0,0,0,4,19.44Zm-.47,1.37a.45.45,0,0,0,.15-.35.51.51,0,0,0-.86-.35.55.55,0,0,0-.14.35.48.48,0,0,0,.14.35.45.45,0,0,0,.17.11.41.41,0,0,0,.19,0A.47.47,0,0,0,3.51,20.81Zm20.28,1.45a1.5,1.5,0,0,0,0-1.49l-10.5-19a1.5,1.5,0,0,0-2.62,0h0l-10.5,19A1.5,1.5,0,0,0,1.5,23h21A1.49,1.49,0,0,0,23.79,22.26Zm-12.23-20a.5.5,0,0,1,.88,0l10.5,19a.5.5,0,0,1,0,.49.47.47,0,0,1-.43.25H1.5a.47.47,0,0,1-.43-.25.5.5,0,0,1,0-.49l10.5-19Zm2.19,15.81A1.75,1.75,0,1,0,12,19.82,1.75,1.75,0,0,0,13.75,18.07Zm-1,0a.75.75,0,1,1-.75-.75A.76.76,0,0,1,12.75,18.07ZM13,14.64l1-3.5A.68.68,0,0,0,14,11a2,2,0,0,0-4,0,.68.68,0,0,0,0,.14l1,3.5a.5.5,0,0,0,.48.36h1A.5.5,0,0,0,13,14.64Zm-2-3.7a1,1,0,0,1,2,0L12.12,14h-.24Z" fill="#b3b3b3"/></svg>