<svg xmlns="http://www.w3.org/2000/svg" viewBox="0 0 24 24"><path d="M12,24A12,12,0,1,1,24,12,12.013,12.013,0,0,1,12,24ZM12,1A11,11,0,1,0,23,12,11.013,11.013,0,0,0,12,1ZM2.689,12.46a.369.369,0,0,0,.161-.11.369.369,0,0,0,.11-.161A.4.4,0,0,0,3,12a.473.473,0,0,0-.15-.351.359.359,0,0,0-.161-.109.5.5,0,0,0-.379,0,.364.364,0,0,0-.161.109.364.364,0,0,0-.109.161A.406.406,0,0,0,2,12a.511.511,0,0,0,.5.5A.4.4,0,0,0,2.689,12.46ZM2.62,10.37a.5.5,0,0,1-.37-.6h0a.5.5,0,0,1,.6-.371h0a.492.492,0,0,1,.37.591h0a.482.482,0,0,1-.48.39h0A.487.487,0,0,1,2.62,10.37Zm.6-2.04a.5.5,0,0,1-.23-.67h0a.492.492,0,0,1,.67-.23h0a.5.5,0,0,1,.23.66h0a.515.515,0,0,1-.451.29h0A.557.557,0,0,1,3.22,8.33ZM4.26,6.47a.5.5,0,0,1-.08-.7h0V5.76h0a.5.5,0,0,1,.7-.071h0a.5.5,0,0,1,.08.7h0a.5.5,0,0,1-.391.179h0A.5.5,0,0,1,4.26,6.47ZM5.689,4.88a.5.5,0,0,1,.071-.7h0a.508.508,0,0,1,.71.08h0a.5.5,0,0,1-.08.7h0a.455.455,0,0,1-.31.109h0A.467.467,0,0,1,5.689,4.88ZM7.42,3.66a.5.5,0,0,1,.24-.67h0a.49.49,0,0,1,.659.23h0a.5.5,0,0,1-.229.67h0a.544.544,0,0,1-.22.049h0A.5.5,0,0,1,7.42,3.66Zm1.97-.81a.5.5,0,0,1,.38-.6h0a.5.5,0,0,1,.6.38h0a.5.5,0,0,1-.38.59h0a.472.472,0,0,1-.11.02h0A.51.51,0,0,1,9.39,2.85Zm2.96,0a.469.469,0,0,0,.15-.35.406.406,0,0,0-.04-.19.375.375,0,0,0-.11-.161.359.359,0,0,0-.161-.109.493.493,0,0,0-.54.109.364.364,0,0,0-.109.161.406.406,0,0,0-.04.19.4.4,0,0,0,.04.189.359.359,0,0,0,.109.161.485.485,0,0,0,.7,0Zm-.814,13.988L18.869,8.83a.5.5,0,0,0-.738-.676L11.167,15.76l-3.3-3.6a.5.5,0,0,0-.736.676l3.667,4a.5.5,0,0,0,.737,0Z" fill="#b3b3b3"/></svg>