<svg xmlns="http://www.w3.org/2000/svg" viewBox="0 0 16 16"><path d="M15,5.5a.5.5,0,0,1-.5.5H14v7.5A2.5,2.5,0,0,1,11.5,16h-7A2.5,2.5,0,0,1,2,13.5V6H1.5a.5.5,0,0,1,0-1h13A.5.5,0,0,1,15,5.5Zm-10,7v-5a.5.5,0,0,0-1,0v5a.5.5,0,0,0,1,0Zm2,0v-5a.5.5,0,0,0-1,0v5a.5.5,0,0,0,1,0Zm3,0v-5a.5.5,0,0,0-1,0v5a.5.5,0,0,0,1,0Zm2,0v-5a.5.5,0,0,0-1,0v5a.5.5,0,0,0,1,0ZM14.756,1.612a.5.5,0,0,1-.4.586L1.6,4.658a.517.517,0,0,1-.095.009.5.5,0,0,1-.094-.991l3.436-.663L4.558,1.541a.5.5,0,0,1,.4-.586L9.864.009a.5.5,0,0,1,.586.4l.284,1.473,3.436-.662A.5.5,0,0,1,14.756,1.612ZM5.824,2.824l3.928-.757-.189-.981-3.928.757Z" fill="#b3b3b3"/></svg>